<svg version="1.1" xmlns="http://www.w3.org/2000/svg" xmlns:xlink="http://www.w3.org/1999/xlink" width="209.5" height="209.5" viewBox="0,0,209.5,209.5"><g transform="translate(-135.25,-75.25)"><g data-paper-data="{&quot;isPaintingLayer&quot;:true}" fill-rule="nonzero" stroke-width="2.5" stroke-linecap="butt" stroke-linejoin="miter" stroke-miterlimit="10" stroke-dasharray="" stroke-dashoffset="0" style="mix-blend-mode: normal"><path d="M136.5,123.075c0,-25.72266 20.85234,-46.575 46.575,-46.575c25.72266,0 46.575,20.85234 46.575,46.575c0,25.72266 -20.85234,46.575 -46.575,46.575c-25.72266,0 -46.575,-20.85234 -46.575,-46.575z" fill="#ff6666" stroke="#ff0000"/><path d="M250.35,124.11c0,-25.72266 20.85234,-46.575 46.575,-46.575c25.72266,0 46.575,20.85234 46.575,46.575c0,25.72266 -20.85234,46.575 -46.575,46.575c-25.72266,0 -46.575,-20.85234 -46.575,-46.575z" fill="#66ffa6" stroke="#00ff21"/><path d="M136.5,236.925c0,-25.72266 20.85234,-46.575 46.575,-46.575c25.72266,0 46.575,20.85234 46.575,46.575c0,25.72266 -20.85234,46.575 -46.575,46.575c-25.72266,0 -46.575,-20.85234 -46.575,-46.575z" fill="#6681ff" stroke="#002dff"/><path d="M250.35,236.925c0,-25.72266 20.85234,-46.575 46.575,-46.575c25.72266,0 46.575,20.85234 46.575,46.575c0,25.72266 -20.85234,46.575 -46.575,46.575c-25.72266,0 -46.575,-20.85234 -46.575,-46.575z" fill="#ff66ec" stroke="#ff00e0"/></g></g></svg>