<svg version="1.1" xmlns="http://www.w3.org/2000/svg" xmlns:xlink="http://www.w3.org/1999/xlink" width="210" height="210" viewBox="0,0,210,210"><g transform="translate(-135,-75)"><g data-paper-data="{&quot;isPaintingLayer&quot;:true}" fill-rule="nonzero" stroke-width="10" stroke-linecap="butt" stroke-linejoin="miter" stroke-miterlimit="10" stroke-dasharray="" stroke-dashoffset="0" style="mix-blend-mode: normal"><path d="M140,125c0,-24.85281 20.14719,-45 45,-45c24.85281,0 45,20.14719 45,45c0,24.85281 -20.14719,45 -45,45c-24.85281,0 -45,-20.14719 -45,-45z" fill="#ff6666" stroke="#ff0000"/><path d="M250,126c0,-24.85281 20.14719,-45 45,-45c24.85281,0 45,20.14719 45,45c0,24.85281 -20.14719,45 -45,45c-24.85281,0 -45,-20.14719 -45,-45z" fill="#66ffa6" stroke="#00ff21"/><path d="M140,235c0,-24.85281 20.14719,-45 45,-45c24.85281,0 45,20.14719 45,45c0,24.85281 -20.14719,45 -45,45c-24.85281,0 -45,-20.14719 -45,-45z" fill="#6681ff" stroke="#002dff"/><path d="M250,235c0,-24.85281 20.14719,-45 45,-45c24.85281,0 45,20.14719 45,45c0,24.85281 -20.14719,45 -45,45c-24.85281,0 -45,-20.14719 -45,-45z" fill="#ff66ec" stroke="#ff00e0"/></g></g></svg>