<svg version="1.1" xmlns="http://www.w3.org/2000/svg" xmlns:xlink="http://www.w3.org/1999/xlink" width="360" height="360" viewBox="0,0,360,360"><defs><linearGradient x1="60" y1="180" x2="420" y2="180" gradientUnits="userSpaceOnUse" id="color-1"><stop offset="0" stop-color="#080080"/><stop offset="1" stop-color="#008035"/></linearGradient></defs><g transform="translate(-60,0)"><g data-paper-data="{&quot;isPaintingLayer&quot;:true}" fill-rule="nonzero" stroke-linecap="butt" stroke-linejoin="miter" stroke-miterlimit="10" stroke-dasharray="" stroke-dashoffset="0" style="mix-blend-mode: normal"><path d="M60,360v-360h360v360z" fill="url(#color-1)" stroke="none" stroke-width="0"/><path d="M140,125c0,-24.85281 20.14719,-45 45,-45c24.85281,0 45,20.14719 45,45c0,24.85281 -20.14719,45 -45,45c-24.85281,0 -45,-20.14719 -45,-45z" fill="#ff6666" stroke="#ff0000" stroke-width="10"/><path d="M250,126c0,-24.85281 20.14719,-45 45,-45c24.85281,0 45,20.14719 45,45c0,24.85281 -20.14719,45 -45,45c-24.85281,0 -45,-20.14719 -45,-45z" fill="#66ffa6" stroke="#00ff21" stroke-width="10"/><path d="M140,235c0,-24.85281 20.14719,-45 45,-45c24.85281,0 45,20.14719 45,45c0,24.85281 -20.14719,45 -45,45c-24.85281,0 -45,-20.14719 -45,-45z" fill="#6681ff" stroke="#002dff" stroke-width="10"/><path d="M250,235c0,-24.85281 20.14719,-45 45,-45c24.85281,0 45,20.14719 45,45c0,24.85281 -20.14719,45 -45,45c-24.85281,0 -45,-20.14719 -45,-45z" fill="#ff66ec" stroke="#ff00e0" stroke-width="10"/></g></g></svg>