<svg version="1.1" xmlns="http://www.w3.org/2000/svg" xmlns:xlink="http://www.w3.org/1999/xlink" width="29.47014" height="29.05645" viewBox="0,0,29.47014,29.05645"><g transform="translate(-225.26493,-165.47177)"><g data-paper-data="{&quot;isPaintingLayer&quot;:true}" fill-rule="nonzero" stroke-linecap="butt" stroke-linejoin="miter" stroke-miterlimit="10" stroke-dasharray="" stroke-dashoffset="0" style="mix-blend-mode: normal"><g><path d="M230.30116,180.1002c0,-5.35652 4.34232,-9.69884 9.69884,-9.69884c5.35652,0 9.69884,4.34232 9.69884,9.69884c0,5.35652 -4.34232,9.69884 -9.69884,9.69884c-5.35652,0 -9.69884,-4.34232 -9.69884,-9.69884z" fill="#000000" stroke="#ffffff" stroke-width="2"/><path d="M237.64542,171.88423v-6.41246h4.70915v6.41246z" fill="#000000" stroke="#ffffff" stroke-width="0"/><path d="M237.64542,194.52823v-6.41246h4.70915v6.41246z" fill="#000000" stroke="#ffffff" stroke-width="0"/><path d="M225.27786,177.73682l6.41243,0.01762l-0.01294,4.70913l-6.41243,-0.01762z" fill="#000000" stroke="#ffffff" stroke-width="0"/><path d="M248.32264,177.73682l6.41243,0.01762l-0.01294,4.70914l-6.41243,-0.01762z" fill="#000000" stroke="#ffffff" stroke-width="0"/><path d="M231.11131,168.36438l4.61499,4.45213l-3.26954,3.38914l-4.61499,-4.45213z" fill="#000000" stroke="#ffffff" stroke-width="0"/><path d="M251.912,171.18334l-4.2982,4.75868l-3.49466,-3.1565l4.29821,-4.75868z" fill="#000000" stroke="#ffffff" stroke-width="0"/><path d="M247.81687,192.48934l-4.05326,-4.96897l3.6491,-2.97661l4.05326,4.96898z" fill="#000000" stroke="#ffffff" stroke-width="0"/><path d="M227.74889,188.49856l4.55616,-4.51231l3.31374,3.34594l-4.55617,4.51231z" fill="#000000" stroke="#ffffff" stroke-width="0"/><path d="M235.04036,180.1002c0,-2.73913 2.2205,-4.95964 4.95964,-4.95964c2.73913,0 4.95964,2.2205 4.95964,4.95964c0,2.73913 -2.2205,4.95964 -4.95964,4.95964c-2.73913,0 -4.95964,-2.2205 -4.95964,-4.95964z" fill="#ffffff" stroke="none" stroke-width="0"/></g></g></g></svg>