<svg version="1.1" xmlns="http://www.w3.org/2000/svg" xmlns:xlink="http://www.w3.org/1999/xlink" width="60" height="60" viewBox="0,0,60,60"><g transform="translate(-210,-150)"><g data-paper-data="{&quot;isPaintingLayer&quot;:true}" fill-rule="nonzero" stroke="none" stroke-width="0" stroke-linecap="butt" stroke-linejoin="miter" stroke-miterlimit="10" stroke-dasharray="" stroke-dashoffset="0" style="mix-blend-mode: normal"><path d="M210,180c0,-16.56854 13.43146,-30 30,-30c16.56854,0 30,13.43146 30,30c0,16.56854 -13.43146,30 -30,30c-16.56854,0 -30,-13.43146 -30,-30z" fill="#ffdc66"/><path d="M221.33333,198.66667l18.66667,-37.33333l18.66667,37.33333z" fill="#ffffff"/><path d="M237.5,188v-16h5v16z" fill="#000000"/><path d="M237.2,193.8c0,-1.5464 1.2536,-2.8 2.8,-2.8c1.5464,0 2.8,1.2536 2.8,2.8c0,1.5464 -1.2536,2.8 -2.8,2.8c-1.5464,0 -2.8,-1.2536 -2.8,-2.8z" fill="#000000"/></g></g></svg>